<svg width="416" height="279" viewBox="0 0 416 279" fill="none" xmlns="http://www.w3.org/2000/svg">
<path opacity="0.62" d="M351.268 186.887C296.343 203.015 237.713 204.359 181.51 194.311C153.6 189.319 126.265 181.511 99.888 171.143C79.1312 162.951 44.7708 152.711 31.4865 133.575C22.6089 120.776 18.3937 106.056 18.2021 90.4398C18.2021 90.3118 18.2021 90.1838 18.2021 90.1198C18.0105 68.6799 26.6326 45.8961 48.6667 40.7762C94.6509 30.0882 163.18 53.7681 227.686 29.4482C292.191 5.12844 333.45 -15.9914 379.434 16.9043C425.418 49.8001 434.423 162.951 367.618 182.279C361.998 183.815 356.569 185.351 351.268 186.887Z" fill="#AEDCFE"/>
<path d="M266.134 216.519C266.134 219.015 206.546 221.063 133.035 221.063C59.524 221.063 0 219.015 0 216.519C0 214.023 59.5879 211.975 133.099 211.975C206.61 211.975 266.134 214.023 266.134 216.519Z" fill="#473D59"/>
<path d="M19.7349 216.199H189.493L217.339 68.424H47.5809L19.7349 216.199Z" fill="#473D59"/>
<path d="M246.399 216.199H76.6404L48.7944 68.424H218.553L246.399 216.199Z" fill="#AEDCFE"/>
<path d="M207.187 79.5631C207.961 76.0785 205.77 72.6245 202.293 71.8484C198.815 71.0723 195.369 73.2679 194.594 76.7526C193.82 80.2372 196.011 83.6912 199.488 84.4673C202.965 85.2434 206.412 83.0477 207.187 79.5631Z" fill="white"/>
<path d="M204.502 77.0639C204.502 79.0479 202.905 80.6478 200.926 80.6478C198.946 80.6478 197.349 79.0479 197.349 77.0639V60.872C197.349 58.888 198.946 57.288 200.926 57.288C202.905 57.288 204.502 58.888 204.502 60.872V77.0639Z" fill="#473D59"/>
<path d="M182.907 79.1629C183.468 75.6376 181.071 72.324 177.553 71.7617C174.035 71.1994 170.728 73.6014 170.167 77.1267C169.606 80.6521 172.003 83.9657 175.521 84.528C179.039 85.0902 182.346 82.6882 182.907 79.1629Z" fill="white"/>
<path d="M180.105 77.0639C180.105 79.0479 178.508 80.6478 176.528 80.6478C174.549 80.6478 172.952 79.0479 172.952 77.0639V60.872C172.952 58.888 174.549 57.288 176.528 57.288C178.508 57.288 180.105 58.888 180.105 60.872V77.0639Z" fill="#473D59"/>
<path d="M158.565 79.1679C159.137 75.6443 156.751 72.3229 153.234 71.7492C149.718 71.1755 146.404 73.5668 145.831 77.0904C145.259 80.6139 147.645 83.9354 151.161 84.509C154.678 85.0827 157.992 82.6914 158.565 79.1679Z" fill="white"/>
<path d="M155.772 77.0639C155.772 79.0479 154.175 80.6478 152.195 80.6478C150.215 80.6478 148.619 79.0479 148.619 77.0639V60.872C148.619 58.888 150.215 57.288 152.195 57.288C154.175 57.288 155.772 58.888 155.772 60.872V77.0639Z" fill="#473D59"/>
<path d="M134.204 79.2117C134.777 75.6882 132.391 72.3667 128.874 71.793C125.358 71.2194 122.044 73.6107 121.471 77.1342C120.899 80.6577 123.285 83.9792 126.801 84.5529C130.317 85.1266 133.632 82.7353 134.204 79.2117Z" fill="white"/>
<path d="M131.438 77.0639C131.438 79.0479 129.842 80.6478 127.862 80.6478C125.882 80.6478 124.285 79.0479 124.285 77.0639V60.872C124.285 58.888 125.882 57.288 127.862 57.288C129.842 57.288 131.438 58.888 131.438 60.872V77.0639Z" fill="#473D59"/>
<path d="M109.848 79.2267C110.437 75.706 108.066 72.3733 104.553 71.7828C101.04 71.1923 97.7138 73.5677 97.1245 77.0884C96.5353 80.6091 98.9058 83.9418 102.419 84.5323C105.933 85.1228 109.258 82.7473 109.848 79.2267Z" fill="white"/>
<path d="M107.041 77.0639C107.041 79.0479 105.444 80.6478 103.465 80.6478C101.485 80.6478 99.888 79.0479 99.888 77.0639V60.872C99.888 58.888 101.485 57.288 103.465 57.288C105.444 57.288 107.041 58.888 107.041 60.872V77.0639Z" fill="#473D59"/>
<path d="M85.5077 79.1757C86.0831 75.6525 83.6993 72.329 80.1835 71.7525C76.6676 71.1759 73.351 73.5646 72.7756 77.0878C72.2003 80.611 74.584 83.9345 78.0999 84.511C81.6158 85.0876 84.9324 82.6988 85.5077 79.1757Z" fill="white"/>
<path d="M82.7078 77.0639C82.7078 79.0479 81.1111 80.6478 79.1312 80.6478C77.1514 80.6478 75.5547 79.0479 75.5547 77.0639V60.872C75.5547 58.888 77.1514 57.288 79.1312 57.288C81.1111 57.288 82.7078 58.888 82.7078 60.872V77.0639Z" fill="#473D59"/>
<path d="M199.84 111.496H218.425L221.746 130.119H203.161L199.84 111.496Z" fill="white"/>
<path d="M178.125 111.496H196.71L199.968 130.119H181.446L178.125 111.496Z" fill="white"/>
<path d="M156.41 111.496H174.996L178.253 130.119H159.667L156.41 111.496Z" fill="white"/>
<path d="M134.695 111.496H153.281L156.538 130.119H137.953L134.695 111.496Z" fill="white"/>
<path d="M112.981 111.496H131.566L134.823 130.119H116.238L112.981 111.496Z" fill="white"/>
<path d="M91.2659 111.496H109.787L113.108 130.119H94.5231L91.2659 111.496Z" fill="white"/>
<path d="M69.4873 111.496H88.0726L91.3937 130.119H72.8084L69.4873 111.496Z" fill="white"/>
<path d="M203.8 132.999H222.385L225.642 151.623H207.057L203.8 132.999Z" fill="white"/>
<path d="M182.085 132.999H200.67L203.927 151.623H185.342L182.085 132.999Z" fill="white"/>
<path d="M160.37 132.999H178.891L182.213 151.623H163.627L160.37 132.999Z" fill="white"/>
<path d="M138.591 132.999H157.177L160.498 151.623H141.912L138.591 132.999Z" fill="white"/>
<path d="M116.877 132.999H135.462L138.783 151.623H120.198L116.877 132.999Z" fill="white"/>
<path d="M95.1619 132.999H113.747L117.068 151.623H98.4829L95.1619 132.999Z" fill="white"/>
<path d="M73.4471 132.999H92.0324L95.3535 151.623H76.7682L73.4471 132.999Z" fill="white"/>
<path d="M207.568 154.503H226.153L229.41 173.063H210.825L207.568 154.503Z" fill="white"/>
<path d="M185.853 154.503H204.374L207.696 173.063H189.11L185.853 154.503Z" fill="white"/>
<path d="M164.074 154.503H182.66L185.981 173.063H167.395L164.074 154.503Z" fill="white"/>
<path d="M142.36 154.503H160.945L164.266 173.063H145.681L142.36 154.503Z" fill="white"/>
<path d="M120.645 154.503H139.23L142.551 173.063H123.966L120.645 154.503Z" fill="white"/>
<path d="M98.93 154.503H117.515L120.836 173.063H102.251L98.93 154.503Z" fill="white"/>
<path d="M77.2152 154.503H95.8005L99.1216 173.063H80.5363L77.2152 154.503Z" fill="white"/>
<path d="M211.527 175.943H230.113L233.37 194.567H214.785L211.527 175.943Z" fill="white"/>
<path d="M189.813 175.943H208.334L211.655 194.567H193.07L189.813 175.943Z" fill="white"/>
<path d="M168.034 175.943H186.619L189.94 194.567H171.355L168.034 175.943Z" fill="white"/>
<path d="M146.319 175.943H164.905L168.226 194.567H149.64L146.319 175.943Z" fill="white"/>
<path d="M124.604 175.943H143.19L146.511 194.567H127.926L124.604 175.943Z" fill="white"/>
<path d="M102.89 175.943H121.475L124.796 194.567H106.211L102.89 175.943Z" fill="white"/>
<path d="M81.1749 175.943H99.7602L103.081 194.567H84.496L81.1749 175.943Z" fill="white"/>
<path d="M129.075 111.496L120.134 127.943" stroke="#FF7C6E" stroke-width="4.2583" stroke-miterlimit="10" stroke-linecap="round"/>
<path d="M117.898 113.352L131.374 126.791" stroke="#FF7C6E" stroke-width="4.2583" stroke-miterlimit="10" stroke-linecap="round"/>
<path d="M107.105 111.496L98.0997 127.943" stroke="#FF7C6E" stroke-width="4.2583" stroke-miterlimit="10" stroke-linecap="round"/>
<path d="M95.8644 113.352L109.34 126.791" stroke="#FF7C6E" stroke-width="4.2583" stroke-miterlimit="10" stroke-linecap="round"/>
<path d="M84.4322 111.496L75.4269 127.943" stroke="#FF7C6E" stroke-width="4.2583" stroke-miterlimit="10" stroke-linecap="round"/>
<path d="M73.1916 113.352L86.6676 126.791" stroke="#FF7C6E" stroke-width="4.2583" stroke-miterlimit="10" stroke-linecap="round"/>
<path d="M246.016 214.087L218.553 68.3599H217.276H204.502V60.808C204.502 58.824 202.905 57.224 200.926 57.224C198.946 57.224 197.349 58.824 197.349 60.808V68.3599H180.169V60.808C180.169 58.824 178.572 57.224 176.592 57.224C174.612 57.224 173.016 58.824 173.016 60.808V68.3599H155.835V60.808C155.835 58.824 154.239 57.224 152.259 57.224C150.279 57.224 148.682 58.824 148.682 60.808V68.3599H131.502V60.808C131.502 58.824 129.905 57.224 127.926 57.224C125.946 57.224 124.349 58.824 124.349 60.808V68.3599H107.169V60.808C107.169 58.824 105.572 57.224 103.592 57.224C101.612 57.224 100.016 58.824 100.016 60.808V68.3599H82.8355V60.808C82.8355 58.824 81.2388 57.224 79.2589 57.224C77.2791 57.224 75.6824 58.824 75.6824 60.808V68.3599H48.986H47.7087L20.2458 214.087C7.53632 214.791 0.127747 215.623 0.127747 216.519C0.127747 219.015 59.7157 221.063 133.227 221.063C206.737 221.063 266.325 219.015 266.325 216.519C266.134 215.623 258.789 214.791 246.016 214.087Z" fill="url(#paint0_linear_6_275)"/>
<path d="M71.9143 145.799C71.9143 145.799 72.8084 142.023 70.8924 140.295C68.9764 138.567 63.2922 138.631 60.7376 141.831C58.119 144.967 56.9056 148.935 58.7577 152.967C60.6737 157.063 67.4436 170.631 72.1059 172.807C76.7682 174.983 82.4523 171.975 84.3045 165.895C86.1566 159.879 83.091 153.863 78.2371 151.431C73.3194 148.999 71.7227 147.719 71.9143 145.799Z" fill="#D65B47"/>
<path d="M102.443 161.159L102.123 160.775C102.123 159.815 101.357 159.047 100.399 159.047H98.0998C97.2695 159.047 96.4392 159.431 95.9922 160.135L87.6894 171.591C87.6894 171.591 84.2406 166.983 80.6002 161.799C76.8959 156.615 74.5328 156.231 74.5328 156.231L76.7043 171.015L83.8574 180.359C85.1986 182.087 87.7533 182.151 89.1584 180.487L98.1636 170.055L102.826 164.359C103.273 163.783 103.401 163.015 103.145 162.375C102.762 161.735 102.443 161.159 102.443 161.159Z" fill="#FC9D99"/>
<path d="M48.9221 258.118C48.9221 259.526 61.8872 260.678 77.9178 260.678C93.9484 260.678 106.913 259.526 106.913 258.118C106.913 256.71 93.9484 255.558 77.9178 255.558C61.951 255.558 48.9221 256.646 48.9221 258.118Z" fill="#473D59"/>
<path d="M78.9396 185.799L81.8775 196.743L87.6894 223.879L91.8408 254.726C91.8408 254.726 95.9921 255.174 95.9921 257.798C80.4086 257.798 80.4086 257.798 80.4086 257.798L76.1295 226.055L69.7428 185.863L78.9396 185.799Z" fill="#8EBEED"/>
<path d="M62.2065 185.799C62.2065 185.799 59.1409 202.823 63.6754 216.135C68.21 229.383 68.21 229.383 68.21 229.383L61.1846 257.734H78.9396C78.9396 257.734 78.9396 255.11 76.1933 254.662L79.7699 231.879C80.217 228.999 80.217 226.055 79.7699 223.175L75.6824 198.407C75.6824 198.407 76.7043 188.999 75.1715 185.799C73.5748 182.599 62.2065 185.799 62.2065 185.799Z" fill="#D8EEFF"/>
<path d="M68.21 229.383C68.21 229.383 68.21 229.383 63.6754 216.135C59.1409 202.887 62.2065 185.799 62.2065 185.799C62.2065 185.799 64.6973 185.095 67.5713 184.711C66.7411 189.383 64.7612 203.655 67.8907 214.855C71.6588 228.487 72.4252 230.663 72.4252 230.663L65.4637 257.798H61.2485L68.21 229.383Z" fill="#8EBEED"/>
<path d="M75.1715 185.799C76.5127 188.487 75.9379 195.591 75.7462 197.767C75.4269 195.207 72.8722 188.039 71.4672 184.391C73.1916 184.391 74.6605 184.775 75.1715 185.799Z" fill="#7396C0"/>
<path d="M61.951 254.662H76.1933C78.9396 255.11 78.9396 257.734 78.9396 257.734H61.1846L61.951 254.662Z" fill="#FF7C6E"/>
<path d="M95.9282 257.734C80.3447 257.734 80.3447 257.734 80.3447 257.734L79.8976 254.662H91.7769C91.7769 254.662 95.9282 255.11 95.9282 257.734Z" fill="#FF7C6E"/>
<path d="M79.8976 230.919C77.4068 230.855 75.4908 228.807 75.4908 226.375C75.4908 224.007 77.2791 222.087 79.5144 221.831L79.7699 223.175C80.1531 225.735 80.2169 228.359 79.8976 230.919Z" fill="#7396C0"/>
<path opacity="0.49" d="M88.4558 230.151C85.965 230.151 83.9213 228.103 83.9213 225.607C83.9213 223.559 85.2625 221.895 87.0508 221.255L87.6256 223.815L88.4558 230.151Z" fill="#2D537A"/>
<path d="M67.8268 255.11C67.8268 255.366 68.0184 255.558 68.2738 255.558H75.6824C75.9379 255.558 76.1295 255.366 76.1295 255.11C76.1295 254.854 75.9379 254.662 75.6824 254.662H68.2738C68.0184 254.662 67.8268 254.854 67.8268 255.11Z" fill="#385445"/>
<path d="M85.5818 255.11C85.5818 255.366 85.7734 255.558 86.0289 255.558H91.3298C91.5853 255.558 91.7769 255.366 91.7769 255.11C91.7769 254.854 91.5853 254.662 91.3298 254.662H86.0289C85.7734 254.662 85.5818 254.854 85.5818 255.11Z" fill="#385445"/>
<path d="M75.6824 196.615L79.5783 220.295C80.5363 225.799 80.4086 231.495 79.2589 236.999L78.2371 241.991" stroke="#0F76A6" stroke-width="0.6663" stroke-miterlimit="10"/>
<path d="M64.0586 155.271L56.203 160.839C56.203 160.839 63.9309 173.255 62.1426 186.439C70.3176 189.063 78.9396 185.863 78.9396 185.863L77.0875 172.423C77.0875 172.423 79.3867 169.415 78.1094 165.255C76.832 161.095 74.4051 156.231 74.4051 156.231L66.8688 154.631L64.0586 155.271Z" fill="#473D59"/>
<path d="M59.3325 158.535C60.546 160.327 63.9309 166.087 60.8014 171.591C58.9493 165.191 56.203 160.775 56.203 160.775L59.3325 158.535Z" fill="#FC9D99"/>
<path opacity="0.6" d="M87.3701 178.887C88.3281 178.887 89.1584 179.143 89.9248 179.527L89.1584 180.423C87.7533 182.087 85.1986 182.023 83.8574 180.295C84.7516 179.463 85.965 178.887 87.3701 178.887Z" fill="#D25C53"/>
<path d="M87.6256 171.591L85.5818 174.087" stroke="#A33E3E" stroke-width="0.6663" stroke-miterlimit="10"/>
<path d="M77.4068 174.535L78.9396 185.799C78.9396 185.799 70.3176 189.063 62.1426 186.375C62.5897 183.111 62.4619 179.847 61.951 176.839C68.5293 177.543 74.916 175.431 77.4068 174.535Z" fill="#FC9D99"/>
<path d="M75.1715 184.199C75.1715 184.647 75.427 185.031 75.6824 185.031C75.9379 185.031 76.1934 184.647 76.1934 184.199C76.1934 183.751 75.9379 183.367 75.6824 183.367C75.427 183.367 75.1715 183.751 75.1715 184.199Z" fill="#9E3C3C"/>
<path d="M77.0875 172.359C77.0875 172.359 69.4873 173.255 65.0166 171.975C60.5459 170.759 69.2318 174.919 77.4068 174.471C77.0875 172.359 77.0875 172.359 77.0875 172.359Z" fill="#312D3F"/>
<path d="M64.4418 149.447L65.2721 156.743C65.3998 157.703 66.294 158.407 67.252 158.279H67.3158C68.2739 158.151 68.9125 157.319 68.8487 156.359L68.2739 150.279L64.4418 149.447Z" fill="#FC9D99"/>
<path d="M68.5293 153.735L68.21 150.215L64.4418 149.447L64.5057 150.151C64.825 150.727 66.4856 153.159 68.5293 153.735Z" fill="#7A2D33"/>
<path d="M70.9562 141.831C70.9562 141.831 73.447 148.167 70.9562 152.711C69.2957 153.287 63.9309 151.687 63.1645 147.271C66.1662 146.311 69.8066 144.583 70.9562 141.831Z" fill="#FC9D99"/>
<path d="M69.4234 146.823C69.4234 147.079 69.2318 147.271 68.9763 147.271C68.7209 147.271 68.5293 147.079 68.5293 146.823V146.247C68.5293 145.991 68.7209 145.799 68.9763 145.799C69.2318 145.799 69.4234 145.991 69.4234 146.247V146.823Z" fill="#8E3930"/>
<path d="M71.084 146.567L71.4033 148.359H70.4453" stroke="#AA4944" stroke-width="0.5974" stroke-miterlimit="10"/>
<path d="M71.4034 149.447L68.5294 149.831C68.4655 149.767 70.7008 150.919 71.4034 149.447Z" fill="#FFFFEB"/>
<path d="M69.4235 144.903C69.4235 144.903 68.7209 144.647 67.6352 145.287" stroke="#AA4944" stroke-width="0.5974" stroke-miterlimit="10"/>
<path d="M64.4418 149.063C64.4418 149.959 63.7393 150.727 62.7813 150.727C61.8872 150.727 61.1208 150.023 61.1208 149.063C61.1208 148.167 61.8233 147.399 62.7813 147.399C63.7393 147.463 64.4418 148.167 64.4418 149.063Z" fill="#FC9D99"/>
<path d="M61.8871 148.679L63.9947 149.447" stroke="#AA4944" stroke-width="0.5974" stroke-miterlimit="10" stroke-linecap="round"/>
<path d="M63.4199 150.919C63.4199 151.367 63.1006 151.687 62.6535 151.687C62.2064 151.687 61.8871 151.367 61.8871 150.919C61.8871 150.471 62.2064 150.151 62.6535 150.151C63.1006 150.151 63.4199 150.535 63.4199 150.919Z" fill="white"/>
<path d="M67.252 139.143C64.9528 139.079 62.2704 139.911 60.7376 141.767C59.2686 143.495 58.2468 145.479 57.9913 147.591C64.1225 146.119 66.4217 142.023 67.252 139.143Z" fill="#FF7C6E"/>
<path d="M124.541 124.296L107.68 133.575L44.8985 203.911C43.8128 205.063 43.9405 206.919 45.154 207.943L47.9641 210.439L50.7743 212.935C51.9239 214.023 53.776 213.895 54.7979 212.679L117.643 142.407L124.924 124.616C125.052 124.36 124.796 124.168 124.541 124.296Z" fill="#D65B47"/>
<path d="M107.715 133.554L57.0951 190.276L66.9972 199.149L117.617 142.428L107.715 133.554Z" fill="#8EBEED"/>
<path d="M110.444 135.938L59.824 192.659L64.2038 196.584L114.824 139.862L110.444 135.938Z" fill="#7396C0"/>
<path d="M57.1119 190.219L52.5139 195.371L62.4161 204.245L67.014 199.093L57.1119 190.219Z" fill="#473D59"/>
<path d="M124.541 124.296L107.68 133.575L117.579 142.471L124.86 124.68C125.052 124.36 124.796 124.168 124.541 124.296Z" fill="#F9BBB9"/>
<path opacity="0.53" d="M59.7984 192.65L55.2004 197.803L59.5802 201.727L64.1782 196.575L59.7984 192.65Z" fill="#8EBEED"/>
<path d="M124.541 124.296L118.026 127.879L122.114 131.527L124.924 124.616C125.052 124.36 124.796 124.168 124.541 124.296Z" fill="#473D59"/>
<path d="M98.7384 157.895C98.7384 157.895 96.6946 158.343 97.014 160.071C94.7148 160.583 93.5652 165.383 94.2038 168.647L100.591 161.479L98.7384 157.895Z" fill="#473D59"/>
<path opacity="0.6" d="M68.6571 197.255L66.0385 194.503L62.0788 190.087L60.993 185.927L57.9274 189.319L60.6098 195.271L66.3578 199.879L66.9965 199.111L68.6571 197.255Z" fill="#473D59"/>
<path d="M56.203 160.775C56.203 160.775 54.3509 162.183 53.329 166.023C52.5626 168.839 50.9659 178.695 50.1356 183.751C49.8163 185.735 50.3272 187.719 51.4768 189.319L60.546 201.799C61.3124 202.823 62.3981 203.591 63.6754 203.847L65.2082 205.639C65.5914 206.023 66.2301 206.023 66.5495 205.639C66.7411 205.383 66.8049 204.999 66.6133 204.743L64.9528 201.479L66.1024 201.991C66.8049 202.311 67.6352 201.863 67.6991 201.095C67.7629 200.839 67.6991 200.519 67.5075 200.263L56.6501 183.047L60.0989 166.023C60.2266 166.023 58.9493 161.031 56.203 160.775Z" fill="#FC9D99"/>
<path opacity="0.6" d="M53.7761 186.951C53.7761 188.295 53.0735 189.447 52.1155 190.151L51.4768 189.255C50.3272 187.655 49.8163 185.671 50.1356 183.687C50.1995 183.495 50.1995 183.239 50.2634 182.983C52.2432 183.239 53.7761 184.903 53.7761 186.951Z" fill="#D25C53"/>
<path d="M102.698 161.607L100.718 158.087C100.271 157.383 99.3132 157.255 98.8022 157.895C98.4829 158.215 98.419 158.663 98.5468 159.111L99.5048 161.927L98.2274 160.391C97.8442 159.879 97.0778 159.879 96.6308 160.391L95.3534 161.799C95.0341 162.183 94.8425 162.695 94.9063 163.207L95.9921 169.863L102.698 161.607Z" fill="#FC9D99"/>
<path d="M96.0559 160.903L97.3971 164.487" stroke="#AA4944" stroke-width="0.6837" stroke-miterlimit="10" stroke-linecap="round"/>
<path d="M56.7778 183.047L54.9256 180.295" stroke="#AA4944" stroke-width="0.6837" stroke-miterlimit="10" stroke-linecap="round"/>
<path opacity="0.34" d="M66.4217 145.927C66.9327 148.039 67.7629 150.663 69.1041 152.647C69.8705 152.775 70.5092 152.775 70.9563 152.647C73.4471 148.103 70.9563 141.767 70.9563 141.767C70.1899 143.623 68.4016 144.967 66.4217 145.927Z" fill="white"/>
<path d="M332.875 116.104C332.875 116.104 355.803 106.76 361.743 90.0558C367.682 73.3519 383.713 61.832 383.713 61.832C383.713 61.832 336.707 74.4399 322.912 114.376C332.875 116.104 332.875 116.104 332.875 116.104Z" fill="#5F5277"/>
<path opacity="0.38" d="M383.713 61.832C383.713 61.832 342.008 85.3198 328.787 118.344" stroke="#442020" stroke-width="1.1766" stroke-miterlimit="10"/>
<path opacity="0.38" d="M322.912 114.376C332.875 116.104 332.875 116.104 332.875 116.104C332.875 116.104 336.771 114.504 341.688 111.496C338.942 108.232 336.196 99.3997 334.599 93.4477C329.809 99.3997 325.722 106.312 322.912 114.376Z" fill="#442020"/>
<path d="M334.28 128.455C334.28 128.455 345.968 111.24 361.934 105.224C367.938 102.984 373.877 99.6557 378.859 95.3677C382.436 92.2958 385.757 85.9598 390.93 86.2158C401.915 86.6638 393.676 101.064 390.611 105.352C380.328 118.216 371.578 116.68 360.721 120.392C349.863 124.104 340.156 138.055 339.134 139.655C338.176 141.255 334.28 128.455 334.28 128.455Z" fill="#5F5277"/>
<path opacity="0.38" d="M339.964 127.751C339.964 127.751 351.971 112.712 366.022 109.64C380.009 106.568 390.1 92.6157 390.1 92.6157" stroke="#442020" stroke-width="1.1766" stroke-miterlimit="10"/>
<path opacity="0.38" d="M349.416 127.623C350.055 122.504 346.862 117.512 345.584 115.784C338.623 122.12 334.28 128.455 334.28 128.455C334.28 128.455 336.388 135.303 337.92 138.311C338.942 137.927 340.028 137.479 341.114 136.903C342.838 134.535 345.84 130.951 349.416 127.623Z" fill="#442020"/>
<path d="M208.526 221.319C208.526 221.319 188.472 211.143 168.864 207.175C149.257 203.207 131.758 176.199 110.171 175.751C123.519 191.943 125.754 213.703 166.948 220.679C180.744 222.663 201.117 230.919 211.847 237.383C222.704 243.847 208.526 221.319 208.526 221.319Z" fill="#5F5277"/>
<path opacity="0.38" d="M201.628 225.927C201.628 225.927 181.574 216.519 161.967 213.831C142.36 211.143 124.094 186.695 124.094 186.695C124.094 186.695 145.936 209.863 162.031 211.463C178.125 213.063 200.798 222.407 200.798 222.407L201.628 225.927Z" fill="#442020"/>
<path opacity="0.38" d="M169.439 207.239C188.919 211.271 208.526 221.255 208.526 221.255C208.526 221.255 222.64 243.847 211.911 237.319C204.694 232.967 193.134 227.783 182.149 224.263L169.439 207.239Z" fill="#442020"/>
<path d="M210.633 211.591C210.633 211.591 198.243 197.319 180.233 193.223C162.222 189.063 143.126 179.911 128.373 163.655" stroke="#5F5277" stroke-width="2.3532" stroke-miterlimit="10"/>
<path d="M188.727 195.719C188.727 195.719 190.898 191.815 187.322 188.167C185.342 190.919 186.939 193.479 188.727 195.719Z" fill="#5F5277"/>
<path d="M188.727 195.719C188.727 195.719 187.577 200.071 182.468 200.199C182.915 196.807 185.853 196.039 188.727 195.719Z" fill="#5F5277"/>
<path d="M178.955 192.903C178.955 192.903 181.127 188.999 177.55 185.351C175.507 188.103 177.103 190.727 178.955 192.903Z" fill="#5F5277"/>
<path d="M178.955 192.903C178.955 192.903 177.806 197.255 172.696 197.383C173.143 194.055 176.081 193.287 178.955 192.903Z" fill="#5F5277"/>
<path d="M170.206 190.023C170.206 190.023 171.738 185.799 167.715 182.727C166.118 185.799 168.098 188.103 170.206 190.023Z" fill="#5F5277"/>
<path d="M170.206 190.023C170.206 190.023 169.695 194.503 164.649 195.399C164.649 191.943 167.459 190.791 170.206 190.023Z" fill="#5F5277"/>
<path d="M161.328 186.695C161.328 186.695 162.861 182.471 158.837 179.399C157.241 182.471 159.157 184.775 161.328 186.695Z" fill="#5F5277"/>
<path d="M161.328 186.695C161.328 186.695 160.817 191.175 155.772 192.071C155.708 188.615 158.518 187.463 161.328 186.695Z" fill="#5F5277"/>
<path d="M153.217 182.535C153.217 182.535 156.283 179.271 153.664 174.855C151.045 177.031 151.94 179.911 153.217 182.535Z" fill="#5F5277"/>
<path d="M153.217 182.535C153.217 182.535 151.045 186.439 146.064 185.351C147.341 182.151 150.343 182.151 153.217 182.535Z" fill="#5F5277"/>
<path d="M144.659 178.119C144.659 178.119 147.724 174.855 145.106 170.439C142.487 172.615 143.445 175.559 144.659 178.119Z" fill="#5F5277"/>
<path d="M144.659 178.119C144.659 178.119 142.487 182.023 137.506 180.935C138.783 177.799 141.785 177.799 144.659 178.119Z" fill="#5F5277"/>
<path d="M136.931 171.207C136.931 171.207 140.06 168.007 137.633 163.527C134.951 165.639 135.781 168.583 136.931 171.207Z" fill="#5F5277"/>
<path d="M136.931 171.207C136.931 171.207 134.632 175.047 129.714 173.831C131.055 170.695 134.057 170.759 136.931 171.207Z" fill="#5F5277"/>
<path d="M129.842 164.999C129.842 164.999 125.371 164.615 124.349 159.623C127.734 159.495 129.011 162.247 129.842 164.999Z" fill="#5F5277"/>
<path d="M209.228 238.919C209.228 238.919 185.534 248.711 169.056 240.711C152.578 232.711 132.396 235.911 132.396 235.911C132.396 235.911 176.209 211.015 215.36 230.471C209.228 238.919 209.228 238.919 209.228 238.919Z" fill="#5F5277"/>
<path opacity="0.38" d="M132.396 235.911C132.396 235.911 180.169 222.855 213.891 237.575" stroke="#442020" stroke-width="1.1766" stroke-miterlimit="10"/>
<path opacity="0.38" d="M181.191 223.047C192.176 222.919 203.991 224.775 215.36 230.471C213.316 233.287 211.975 235.207 211.08 236.487C212.038 236.871 212.996 237.255 213.891 237.639L210.314 237.575C209.292 238.983 209.292 238.983 209.292 238.983C209.292 238.983 203.608 241.351 195.88 242.759L181.191 223.047Z" fill="#442020"/>
<path d="M369.726 149.255L334.344 119.496L328.532 115.272C327.829 114.76 326.744 115.08 326.488 115.912C326.296 116.424 326.424 116.936 326.807 117.32L330.703 121.224C330.703 121.224 327.255 120.84 329.618 123.975C331.981 127.047 362.254 156.679 362.254 156.679L369.726 149.255Z" fill="#FC9D99"/>
<path d="M330.767 121.288L335.621 124.36" stroke="#AA4944" stroke-width="0.7788" stroke-miterlimit="10" stroke-linecap="round"/>
<path d="M351.332 145.927C357.4 151.879 362.317 156.743 362.317 156.743L369.726 149.319L357.655 139.079L351.332 145.927Z" fill="#BA3936"/>
<path opacity="0.6" d="M340.603 135.303C343.093 137.799 345.776 140.423 348.331 142.983C348.778 135.879 340.603 135.303 340.603 135.303Z" fill="#D25C53"/>
<path d="M260.705 259.718C292.909 259.718 319.016 258.171 319.016 256.262C319.016 254.354 292.909 252.807 260.705 252.807C228.501 252.807 202.395 254.354 202.395 256.262C202.395 258.171 228.501 259.718 260.705 259.718Z" fill="#473D59"/>
<path d="M308.208 70.5628L298.556 86.1773L312.944 95.1084L322.596 79.4939L308.208 70.5628Z" fill="#8EBEED"/>
<path d="M308.24 70.5458L304.608 76.4217L318.996 85.3527L322.628 79.4769L308.24 70.5458Z" fill="#473D59"/>
<path d="M323.039 84.8718L303.113 72.5199C301.516 71.5599 301.005 69.4479 302.027 67.848L305.859 61.64C306.817 60.04 308.925 59.528 310.521 60.552L330.448 72.9039C332.045 73.8639 332.555 75.9759 331.534 77.5759L327.702 83.7838C326.68 85.3838 324.636 85.8958 323.039 84.8718Z" fill="#D65B47"/>
<path d="M310.546 60.5955L303.147 72.5648L305.915 74.2836L313.315 62.3143L310.546 60.5955Z" fill="#FF7C6E"/>
<path d="M316.221 64.1592L308.822 76.1285L311.591 77.8473L318.99 65.878L316.221 64.1592Z" fill="#FF7C6E"/>
<path d="M321.985 67.7021L314.586 79.6714L317.355 81.3902L324.754 69.4209L321.985 67.7021Z" fill="#FF7C6E"/>
<path d="M327.66 71.2658L320.261 83.2351L323.03 84.9539L330.429 72.9846L327.66 71.2658Z" fill="#FF7C6E"/>
<path d="M213.022 70.4877L198.634 79.4187L208.287 95.0333L222.675 86.1022L213.022 70.4877Z" fill="#8EBEED"/>
<path d="M212.967 70.4885L198.579 79.4196L202.211 85.2954L216.599 76.3644L212.967 70.4885Z" fill="#473D59"/>
<path d="M198.179 84.8718L218.106 72.5199C219.702 71.5599 220.213 69.4479 219.192 67.8479L215.359 61.64C214.401 60.04 212.294 59.528 210.697 60.552L190.771 72.9039C189.174 73.8639 188.663 75.9759 189.685 77.5759L193.517 83.7838C194.539 85.3838 196.583 85.8958 198.179 84.8718Z" fill="#D65B47"/>
<path d="M210.634 60.5662L207.865 62.285L215.264 74.2543L218.033 72.5355L210.634 60.5662Z" fill="#FF7C6E"/>
<path d="M204.963 64.1269L202.194 65.8457L209.593 77.815L212.362 76.0962L204.963 64.1269Z" fill="#FF7C6E"/>
<path d="M199.205 67.6669L196.436 69.3857L203.835 81.355L206.604 79.6362L199.205 67.6669Z" fill="#FF7C6E"/>
<path d="M193.534 71.2275L190.765 72.9463L198.164 84.9157L200.933 83.1968L193.534 71.2275Z" fill="#FF7C6E"/>
<path d="M273.798 53.0001H247.485V81.6078H273.798V53.0001Z" fill="#8EBEED"/>
<path d="M273.798 53.0001H247.485V63.688H273.798V53.0001Z" fill="#473D59"/>
<path d="M260.577 256.454C312.005 256.454 353.695 214.678 353.695 163.143C353.695 111.609 312.005 69.8319 260.577 69.8319C209.15 69.8319 167.459 111.609 167.459 163.143C167.459 214.678 209.15 256.454 260.577 256.454Z" fill="#FF7C6E"/>
<path d="M260.577 250.311C308.619 250.311 347.564 211.284 347.564 163.143C347.564 115.002 308.619 75.9759 260.577 75.9759C212.536 75.9759 173.59 115.002 173.59 163.143C173.59 211.284 212.536 250.311 260.577 250.311Z" fill="#D65B47"/>
<path d="M318.042 220.591C349.767 188.799 349.767 137.256 318.042 105.464C286.316 73.6731 234.879 73.6731 203.154 105.464C171.428 137.256 171.428 188.799 203.154 220.591C234.879 252.382 286.316 252.382 318.042 220.591Z" fill="white"/>
<path d="M313.523 195.527C313.651 193.799 315.311 192.583 316.716 193.351C319.718 194.951 322.656 196.679 325.594 198.471C326.552 199.047 326.744 200.391 326.169 201.351C325.594 202.311 324.38 202.631 323.295 202.055C320.996 200.775 318.696 199.431 316.397 198.087C315.886 197.767 315.247 197.511 314.8 197.127C314.226 196.615 313.906 196.039 313.523 195.527Z" fill="#8EBEED"/>
<path d="M262.749 232.135C262.749 233.671 262.749 235.271 262.749 236.807C262.749 238.151 261.855 239.111 260.641 239.175C259.364 239.175 258.406 238.215 258.406 236.807C258.406 233.671 258.406 230.599 258.406 227.463C258.406 225.991 259.236 225.095 260.577 225.095C261.855 225.095 262.685 225.991 262.685 227.463C262.749 228.999 262.749 230.599 262.749 232.135Z" fill="#8EBEED"/>
<path d="M329.298 165.447C327.765 165.447 326.169 165.447 324.636 165.447C323.167 165.447 322.273 164.615 322.273 163.271C322.273 161.991 323.167 161.159 324.572 161.159C327.702 161.159 330.831 161.159 334.024 161.159C335.366 161.159 336.324 162.119 336.324 163.335C336.324 164.551 335.366 165.447 334.024 165.447C332.364 165.447 330.831 165.447 329.298 165.447Z" fill="#8EBEED"/>
<path d="M230.815 218.951C230.751 219.143 230.624 219.591 230.368 220.039C228.835 222.727 227.303 225.351 225.77 228.039C225.067 229.255 223.854 229.639 222.768 229.063C221.618 228.423 221.299 227.207 222.002 225.927C223.534 223.175 225.131 220.487 226.664 217.735C227.239 216.711 228.261 216.263 229.283 216.647C230.304 216.967 230.879 217.607 230.815 218.951Z" fill="#8EBEED"/>
<path d="M292.958 216.519C293.277 216.775 294.044 217.159 294.363 217.735C295.96 220.359 297.492 223.111 299.025 225.799C299.728 227.079 299.472 228.359 298.387 228.935C297.237 229.575 296.024 229.255 295.257 227.911C293.66 225.223 292.128 222.535 290.595 219.847C289.765 218.247 290.786 216.519 292.958 216.519Z" fill="#8EBEED"/>
<path d="M191.92 165.447C190.388 165.447 188.791 165.447 187.258 165.447C185.853 165.447 184.959 164.615 184.959 163.335C184.959 162.055 185.853 161.223 187.258 161.223C190.388 161.223 193.453 161.159 196.583 161.223C197.924 161.223 198.946 162.119 198.946 163.335C198.946 164.615 198.052 165.447 196.583 165.511C195.05 165.447 193.517 165.447 191.92 165.447Z" fill="#8EBEED"/>
<path d="M197.094 202.311C195.88 202.247 195.178 201.735 194.922 200.775C194.603 199.815 194.986 198.855 195.944 198.279C198.371 196.871 200.862 195.463 203.289 193.991C203.672 193.799 203.991 193.543 204.374 193.415C205.524 192.839 206.737 193.223 207.312 194.311C207.887 195.335 207.504 196.551 206.482 197.191C204.566 198.343 202.586 199.431 200.67 200.583C199.904 201.031 199.137 201.479 198.307 201.927C197.86 202.055 197.413 202.183 197.094 202.311Z" fill="#8EBEED"/>
<path d="M262.685 94.5997C262.685 96.1357 262.685 97.7357 262.685 99.2717C262.685 100.616 261.791 101.576 260.577 101.576C259.428 101.64 258.47 100.616 258.47 99.3357C258.406 96.1357 258.47 92.9998 258.47 89.7998C258.47 88.5198 259.428 87.5598 260.577 87.6238C261.855 87.6238 262.685 88.5198 262.685 89.9278C262.685 91.4638 262.685 92.9998 262.685 94.5997Z" fill="#8EBEED"/>
<path d="M316.078 133.511C314.864 133.511 314.162 133.063 313.842 132.103C313.523 131.079 313.842 130.119 314.864 129.543C316.908 128.327 318.952 127.175 321.059 125.959C321.762 125.575 322.464 125.128 323.231 124.744C324.317 124.168 325.53 124.488 326.105 125.447C326.744 126.471 326.488 127.751 325.338 128.391C322.528 130.055 319.718 131.655 316.908 133.255C316.589 133.383 316.206 133.447 316.078 133.511Z" fill="#8EBEED"/>
<path d="M299.536 99.5277C299.345 99.9757 299.281 100.424 299.089 100.744C297.556 103.432 296.024 106.12 294.427 108.808C293.66 110.088 292.447 110.408 291.361 109.768C290.275 109.128 290.02 107.912 290.723 106.696C292.255 103.944 293.852 101.256 295.449 98.5677C296.343 97.0957 297.94 96.9677 298.961 98.2477C299.281 98.6317 299.345 99.1437 299.536 99.5277Z" fill="#8EBEED"/>
<path d="M205.077 133.447C204.949 133.383 204.502 133.255 204.183 133.063C201.437 131.527 198.754 129.927 196.008 128.327C194.922 127.687 194.539 126.407 195.114 125.383C195.688 124.424 196.902 124.039 197.988 124.615C200.798 126.215 203.608 127.815 206.418 129.479C207.376 130.055 207.695 131.015 207.376 131.975C206.993 132.999 206.354 133.511 205.077 133.447Z" fill="#8EBEED"/>
<path d="M230.815 107.72C230.815 108.936 230.304 109.704 229.283 109.96C228.324 110.216 227.494 109.96 226.983 109.064C225.323 106.248 223.662 103.432 222.066 100.552C221.491 99.4637 221.874 98.1837 222.832 97.6717C223.854 97.0957 225.067 97.3517 225.706 98.4397C227.367 101.192 228.963 104.008 230.56 106.824C230.688 107.208 230.751 107.592 230.815 107.72Z" fill="#8EBEED"/>
<path d="M260.577 186.759C273.487 186.759 283.953 176.272 283.953 163.335C283.953 150.399 273.487 139.911 260.577 139.911C247.667 139.911 237.202 150.399 237.202 163.335C237.202 176.272 247.667 186.759 260.577 186.759Z" fill="#8EBEED"/>
<path d="M265.259 167.504C267.728 165.03 267.728 161.018 265.259 158.544C262.79 156.07 258.786 156.07 256.317 158.544C253.848 161.018 253.848 165.03 256.317 167.504C258.786 169.979 262.79 169.979 265.259 167.504Z" fill="#7396C0"/>
<path d="M262.94 98.6317C262.94 97.4797 261.982 96.5197 260.833 96.5197C259.683 96.5197 258.725 97.4797 258.725 98.6317V162.759C258.725 163.911 259.683 164.871 260.833 164.871C261.982 164.871 262.94 163.911 262.94 162.759V98.6317Z" fill="#473D59"/>
<path d="M227.175 185.223C226.153 185.799 224.812 185.479 224.237 184.455C223.662 183.431 223.982 182.087 225.003 181.511L259.683 161.479C260.705 160.903 262.046 161.223 262.621 162.247C263.196 163.271 262.877 164.615 261.855 165.191L227.175 185.223Z" fill="#473D59"/>
<path d="M278.779 59.912H242.375C239.437 59.912 237.138 57.544 237.138 54.664V43.3361C237.138 40.3922 239.501 38.0882 242.375 38.0882H278.779C281.717 38.0882 284.017 40.4562 284.017 43.3361V54.6001C284.08 57.544 281.717 59.912 278.779 59.912Z" fill="#D65B47"/>
<path d="M247.485 37.9602H242.375V59.848H247.485V37.9602Z" fill="#FF7C6E"/>
<path d="M257.959 37.9602H252.849V59.848H257.959V37.9602Z" fill="#FF7C6E"/>
<path d="M268.433 37.9602H263.324V59.848H268.433V37.9602Z" fill="#FF7C6E"/>
<path d="M278.907 37.9602H273.798V59.848H278.907V37.9602Z" fill="#FF7C6E"/>
<path d="M388.503 257.734C388.503 259.59 373.43 261.062 354.781 261.062C336.132 261.062 321.059 259.59 321.059 257.734C321.059 255.878 336.132 254.407 354.781 254.407C373.366 254.407 388.503 255.878 388.503 257.734Z" fill="#312D3F"/>
<path d="M374.963 197.255C374.963 197.255 369.471 211.463 360.785 221.767C377.262 251.527 377.965 252.359 377.965 252.359H356.825L345.52 221.767L374.963 197.255Z" fill="#7396C0"/>
<path d="M378.029 252.359L380.392 257.734H358.166L356.825 252.359H378.029Z" fill="#312D3F"/>
<path d="M363.531 252.358L353.312 223.815C353.312 223.815 363.467 212.103 367.746 206.535C347.245 222.279 347.245 222.279 347.245 222.279L354.079 252.358H363.531Z" fill="#473D59"/>
<path d="M376.56 188.935C376.56 188.935 377.007 202.247 363.531 212.551L349.863 222.471L356.761 252.359H336.387L330.192 221.639C329.49 218.311 330.831 214.855 333.577 212.807L354.079 197.319L354.717 192.967L376.56 188.935Z" fill="#8EBEED"/>
<path d="M356.825 252.359L358.166 257.734H329.107C329.107 257.734 330.001 253.638 336.451 252.359C352.929 252.359 356.825 252.359 356.825 252.359Z" fill="#544768"/>
<path d="M340.475 216.135C340.475 213.575 339.581 211.271 338.048 209.479L333.641 212.807C330.895 214.855 329.618 218.311 330.256 221.639L331.214 226.439C336.387 225.863 340.475 221.447 340.475 216.135Z" fill="#7396C0"/>
<path d="M369.726 190.279C369.726 190.279 370.237 198.471 356.122 209.415C344.626 217.927 342.199 219.271 342.199 219.271L349.672 252.358" stroke="#0F76A6" stroke-width="0.6663" stroke-miterlimit="10"/>
<path d="M334.408 181.639C334.408 181.639 338.751 182.343 344.499 181.767C347.947 181.383 350.502 181.127 352.035 180.935C352.354 179.399 352.61 177.927 352.801 176.391L334.408 181.639Z" fill="#473D59"/>
<path d="M357.272 192.455C357.272 192.455 358.166 197.895 361.743 199.175C365.128 195.847 366.405 192.007 366.724 190.727L357.272 192.455Z" fill="#7396C0"/>
<path d="M354.781 192.903C354.781 192.903 365.958 195.783 376.113 193.223C376.624 190.599 376.56 188.935 376.56 188.935L354.781 192.903Z" fill="#473D59"/>
<path d="M364.361 140.615C364.361 140.615 364.106 138.247 365.639 136.519C367.107 134.791 372.855 135.303 374.58 136.903C376.368 138.503 375.793 144.967 371.514 148.615C370.365 146.951 364.361 140.615 364.361 140.615Z" fill="#473D59"/>
<path d="M370.684 150.471L378.987 158.151L376.624 188.935C376.624 188.935 367.555 193.863 354.845 192.903C360.721 156.999 360.721 156.999 360.721 156.999C360.721 156.999 361.998 150.535 368.768 149.767C370.684 150.471 370.684 150.471 370.684 150.471Z" fill="#D65B47"/>
<path d="M357.272 177.543C357.272 177.543 367.427 176.263 377.646 174.535L378.22 167.879L361.679 172.807L357.272 177.543Z" fill="#473D59"/>
<path d="M378.923 158.151C378.923 158.151 384.671 163.591 381.158 169.159C378.156 173.959 346.159 180.039 337.09 181.639C334.919 182.023 332.683 181.511 331.023 180.103C330.767 179.911 330.576 179.719 330.384 179.463C326.871 179.591 324.955 178.183 326.233 177.415C327.51 176.647 331.661 175.495 331.661 175.495C331.661 175.495 332.747 174.215 330.512 174.215C328.276 174.215 328.596 171.463 333.194 171.399C337.793 171.335 351.971 168.455 359.763 166.407C367.682 164.359 378.923 158.151 378.923 158.151Z" fill="#FC9D99"/>
<path d="M330.384 179.527C330.384 179.527 332.747 179.079 334.344 178.567" stroke="#AA4944" stroke-width="0.6837" stroke-miterlimit="10" stroke-linecap="round"/>
<path d="M368.129 174.855C374.772 172.999 380.072 171.015 381.222 169.159C384.735 163.591 378.987 158.151 378.987 158.151C378.987 158.151 370.812 162.631 363.595 165.255C365.191 167.175 367.363 170.439 368.129 174.855Z" fill="#D65B47"/>
<path d="M366.533 148.423V152.519C366.533 152.519 363.212 156.487 365.575 156.103C367.938 155.719 372.025 152.263 372.025 152.263V144.839L366.533 148.423Z" fill="#FC9D99"/>
<path d="M366.533 151.303C367.746 150.855 370.173 149.575 371.514 146.695C371.898 145.863 371.834 145.415 371.578 145.159L366.533 148.487V151.303Z" fill="#7A2D33"/>
<path d="M366.086 137.863C366.086 137.863 363.339 141.703 362.254 145.543C361.168 149.383 362.254 149.511 362.254 149.511C362.254 149.511 365.255 150.727 369.534 148.551C372.856 146.055 373.494 142.919 373.494 142.919C373.494 142.919 369.534 142.919 368.704 139.463C368.065 142.791 366.213 141.383 366.086 137.863Z" fill="#FC9D99"/>
<path d="M375.41 145.223C375.41 146.311 374.516 147.207 373.43 147.207C372.345 147.207 371.45 146.311 371.45 145.223C371.45 144.135 372.345 143.239 373.43 143.239C374.58 143.303 375.41 144.135 375.41 145.223Z" fill="#FC9D99"/>
<path d="M367.044 143.495C367.044 143.495 368.257 143.239 369.407 144.007" stroke="#AA4944" stroke-width="0.5974" stroke-miterlimit="10" stroke-linecap="round"/>
<path d="M364.744 142.919C364.744 142.919 364.361 142.535 363.403 142.535" stroke="#AA4944" stroke-width="0.5974" stroke-miterlimit="10" stroke-linecap="round"/>
<path d="M363.403 146.119L366.852 146.759C366.852 146.695 363.914 148.551 363.403 146.119Z" fill="white"/>
<path d="M367.618 142.087C367.618 142.087 368.832 141.831 369.726 142.791" stroke="#473D59" stroke-width="0.7476" stroke-miterlimit="10" stroke-linecap="round"/>
<path d="M365.83 141.639C365.83 141.639 364.936 140.807 364.17 140.999" stroke="#473D59" stroke-width="0.7476" stroke-miterlimit="10" stroke-linecap="round"/>
<path opacity="0.6" d="M365.128 175.623C364.106 173.639 362.062 172.231 359.699 172.231C356.314 172.231 353.568 174.983 353.568 178.375C357.4 177.543 361.423 176.583 365.128 175.623Z" fill="#D25C53"/>
<path d="M364.936 144.007L364.106 145.159L365.319 145.543" stroke="#AA4944" stroke-width="0.5974" stroke-miterlimit="10" stroke-linecap="round"/>
<path d="M371.706 146.119L374.452 144.647" stroke="#AA4944" stroke-width="0.5974" stroke-miterlimit="10" stroke-linecap="round"/>
<path opacity="0.34" d="M368.704 139.463C368.129 142.791 366.213 141.383 366.086 137.927C366.086 137.927 363.339 141.767 362.254 145.607C361.168 149.447 362.254 149.575 362.254 149.575C362.254 149.575 363.659 150.151 365.894 149.767C368.257 147.847 369.918 144.391 370.748 142.215C369.854 141.703 369.023 140.871 368.704 139.463Z" fill="white"/>
<path d="M348.905 253.383C348.905 253.958 348.458 254.406 347.884 254.406H337.537C336.962 254.406 336.515 253.958 336.515 253.383C336.515 252.807 336.962 252.359 337.537 252.359H347.884C348.458 252.359 348.905 252.807 348.905 253.383Z" fill="white"/>
<path d="M378.412 53.0001H294.491L306.689 49.5441C306.689 49.5441 308.286 42.7601 312.374 42.7601C316.461 42.7601 319.271 46.9201 319.271 46.9201C319.271 46.9201 319.143 32.9042 329.681 32.9042C340.156 32.9042 342.455 46.6001 342.455 46.6001C342.455 46.6001 345.01 39.7522 350.694 39.7522C356.378 39.7522 358.549 48.5201 358.549 48.5201L378.412 53.0001Z" fill="white"/>
<defs>
<linearGradient id="paint0_linear_6_275" x1="124.318" y1="145.68" x2="185.022" y2="167.999" gradientUnits="userSpaceOnUse">
<stop stop-color="white"/>
<stop offset="0.1483" stop-color="#FBFCFD"/>
<stop offset="0.2945" stop-color="#EFF3F9"/>
<stop offset="0.4399" stop-color="#DBE4F0"/>
<stop offset="0.5849" stop-color="#C0D0E5"/>
<stop offset="0.7295" stop-color="#9CB5D6"/>
<stop offset="0.872" stop-color="#7195C5"/>
<stop offset="1" stop-color="#4373B2"/>
</linearGradient>
</defs>
</svg>
